<svg width="226" height="60" viewBox="0 0 226 60" fill="none" xmlns="http://www.w3.org/2000/svg">
<path d="M213.487 7.84808H196.239V13.9854L190.102 7.84808H177.189V11.285C176.266 10.2062 175.12 9.34024 173.831 8.74691C172.541 8.15357 171.138 7.84692 169.718 7.84808H158.789V11.253C156.714 9.28792 154.026 8.09652 151.176 7.87883C148.326 7.66114 145.489 8.4304 143.139 10.0575L144.398 7.87999H132.728L130.226 12.1834L127.744 7.87263H116.069L116.191 8.08375C115.442 7.94488 114.681 7.87422 113.918 7.87263H88.6646L81.398 14.5009L74.1094 7.87263H68.3747V11.2088C66.2323 9.21074 63.4524 8.03447 60.5265 7.88802C57.6006 7.74157 54.7171 8.63436 52.3859 10.4085C50.2207 8.75616 47.5706 7.86473 44.8469 7.87263C42.8646 7.87033 40.9103 8.33984 39.1454 9.24236C37.3805 10.1449 35.8558 11.4545 34.6973 13.0629C33.5387 14.6714 32.7796 16.5324 32.4827 18.4923C32.1858 20.4522 32.3596 22.4546 32.9898 24.334C33.62 26.2135 34.6884 27.9159 36.1068 29.3007C37.5251 30.6854 39.2527 31.7127 41.1467 32.2976C43.0407 32.8825 45.0467 33.0083 46.9989 32.6645C48.9511 32.3206 50.7934 31.5171 52.3736 30.3203C54.7078 32.091 57.5913 32.9826 60.5176 32.8385C63.4439 32.6944 66.2258 31.5238 68.3747 29.5323V32.8538H78.5209V25.5529L81.4103 28.1649L84.2556 25.5652V32.8538H113.918C116.283 32.8533 118.599 32.1823 120.598 30.9188C122.597 29.6552 124.196 27.8508 125.211 25.7149V32.8538H135.276V23.6724L137.792 19.3223C137.763 19.6587 137.746 19.9999 137.746 20.346C137.74 22.786 138.449 25.1741 139.786 27.2151C141.123 29.256 143.029 30.8602 145.269 31.8291C147.508 32.798 149.982 33.0892 152.385 32.6666C154.788 32.2439 157.015 31.1261 158.789 29.4513V32.8636H168.918V28.381L171.528 32.8538H194.655V26.7165L200.773 32.8538H213.487C216.804 32.8538 219.986 31.536 222.331 29.1904C224.677 26.8447 225.995 23.6633 225.995 20.346C225.995 17.0288 224.677 13.8474 222.331 11.5017C219.986 9.15604 216.804 7.83826 213.487 7.83826V7.84808ZM44.8469 22.6806C43.4378 22.6806 42.5294 21.7723 42.5294 20.3632C42.5294 18.9541 43.4378 18.0458 44.8469 18.0458C45.1528 18.0299 45.4589 18.0752 45.7472 18.1789C46.0355 18.2825 46.3002 18.4426 46.526 18.6497L47.4589 19.5826C47.4442 19.8477 47.4319 20.1153 47.4319 20.3829C47.4319 20.6504 47.4319 20.8493 47.4515 21.08L46.499 22.062C46.2788 22.27 46.0191 22.4319 45.7354 22.5381C45.4517 22.6444 45.1496 22.6928 44.8469 22.6806ZM59.8955 22.7617C59.2665 22.7496 58.667 22.4928 58.2242 22.0459C57.7815 21.599 57.5303 20.9972 57.524 20.3681C57.5255 19.8959 57.6671 19.4347 57.9308 19.0429C58.1945 18.6512 58.5686 18.3465 59.0056 18.1675C59.4426 17.9884 59.9229 17.9431 60.3857 18.0372C60.8484 18.1313 61.2729 18.3606 61.6053 18.6961C61.9377 19.0316 62.163 19.4581 62.2528 19.9218C62.3426 20.3854 62.2928 20.8653 62.1098 21.3006C61.9267 21.7359 61.6186 22.1071 61.2244 22.3672C60.8302 22.6273 60.3677 22.7646 59.8955 22.7617ZM114.127 22.7617V18.0531C114.721 18.0961 115.277 18.3624 115.682 18.7985C116.088 19.2346 116.314 19.8081 116.314 20.4037C116.314 20.9993 116.088 21.5729 115.682 22.0089C115.277 22.445 114.721 22.7113 114.127 22.7543V22.7617ZM156.725 17.1767L158.789 15.1269V17.1767H156.725ZM169.792 18.0924H168.918V17.1326H169.792C169.922 17.1326 170.047 17.1843 170.139 17.2764C170.231 17.3684 170.283 17.4933 170.283 17.6235C170.284 17.6875 170.273 17.7511 170.248 17.8103C170.224 17.8695 170.187 17.9229 170.141 17.9672C170.095 18.0116 170.04 18.0458 169.98 18.0678C169.92 18.0898 169.856 18.099 169.792 18.0949V18.0924ZM213.691 22.7568V18.0261C214.287 18.0692 214.846 18.3366 215.253 18.7745C215.66 19.2124 215.887 19.7884 215.887 20.3865C215.887 20.9847 215.66 21.5607 215.253 21.9986C214.846 22.4365 214.287 22.7039 213.691 22.7469V22.7568Z" fill="#552459"/>
<path d="M59.8958 10.2862C57.9031 10.2857 55.955 10.8759 54.2976 11.9821C52.6402 13.0883 51.3478 14.6609 50.5838 16.5013C49.8198 18.3417 49.6184 20.3672 50.0051 22.322C50.3917 24.2768 51.3491 26.0731 52.7563 27.4841C54.1634 28.895 55.9572 29.8572 57.9109 30.2491C59.8647 30.641 61.8907 30.445 63.7332 29.6859C65.5756 28.9268 67.1517 27.6387 68.2623 25.9842C69.373 24.3298 69.9683 22.3833 69.9732 20.3906C69.9764 19.065 69.7181 17.7519 69.2132 16.5262C68.7082 15.3006 67.9665 14.1866 67.0304 13.2481C66.0944 12.3095 64.9824 11.5648 63.7581 11.0565C62.5338 10.5483 61.2213 10.2865 59.8958 10.2862ZM59.8958 25.1752C58.9439 25.1752 58.0134 24.8929 57.2221 24.364C56.4307 23.8351 55.814 23.0833 55.4499 22.2038C55.0859 21.3243 54.9909 20.3566 55.177 19.4231C55.363 18.4896 55.8218 17.6323 56.4952 16.9595C57.1686 16.2868 58.0264 15.8289 58.9601 15.6438C59.8938 15.4587 60.8614 15.5547 61.7405 15.9197C62.6196 16.2846 63.3708 16.9021 63.8989 17.694C64.427 18.4859 64.7084 19.4167 64.7074 20.3685C64.7048 21.6434 64.1969 22.8652 63.2949 23.7662C62.393 24.6673 61.1706 25.1739 59.8958 25.1752Z" fill="white"/>
<path d="M44.8468 25.0943C42.1046 25.0943 40.1162 23.1058 40.1162 20.3637C40.1162 17.6215 42.1046 15.6355 44.8468 15.6355C45.4701 15.6196 46.0903 15.7278 46.6715 15.9537C47.2526 16.1796 47.7831 16.5187 48.2321 16.9513L51.9415 13.215C51.0107 12.2827 49.9046 11.5439 48.6869 11.0412C47.4693 10.5386 46.1641 10.282 44.8468 10.2862C43.1863 10.2835 41.5509 10.6911 40.0859 11.4726C38.6209 12.2542 37.3717 13.3855 36.4492 14.7661C35.5267 16.1468 34.9596 17.7339 34.7982 19.3865C34.6368 21.0391 34.8862 22.7059 35.5242 24.2389C36.1621 25.7719 37.1689 27.1236 38.4551 28.1737C39.7412 29.2239 41.2669 29.9401 42.8965 30.2587C44.5261 30.5773 46.2091 30.4883 47.7961 29.9998C49.383 29.5113 50.8247 28.6382 51.993 27.4583L48.2321 23.7514C47.7884 24.1932 47.2595 24.54 46.6775 24.7709C46.0955 25.0017 45.4726 25.1118 44.8468 25.0943Z" fill="white"/>
<path d="M81.4031 17.7565L73.1792 10.2862H70.7856V30.441H76.1079V20.123L81.4031 24.9052L86.6689 20.096V30.441H91.9912V10.2862H89.5976L81.4031 17.7565Z" fill="white"/>
<path d="M93.0024 30.441H105.525V26.1155H98.2977V22.4061H104.693V17.9455H98.2977V14.6658H105.525V10.2862H93.0024V30.441Z" fill="white"/>
<path d="M113.919 10.2859H106.446V30.4333H113.919C116.564 30.392 119.088 29.312 120.944 27.4264C122.801 25.5408 123.841 23.0008 123.841 20.3547C123.841 17.7086 122.801 15.1686 120.944 13.283C119.088 11.3974 116.564 10.3174 113.919 10.2761V10.2859ZM113.946 25.1749H111.714V15.6351H113.946C115.211 15.6351 116.424 16.1377 117.318 17.0322C118.213 17.9267 118.715 19.14 118.715 20.405C118.715 21.6701 118.213 22.8833 117.318 23.7778C116.424 24.6724 115.211 25.1749 113.946 25.1749Z" fill="white"/>
<path d="M134.117 10.2862L130.221 17.0053L126.35 10.2862H120.25L127.614 23.0247V30.441H132.853V23.0247L140.218 10.2862H134.117Z" fill="white"/>
<path d="M160.314 19.5926V20.3463C160.318 22.6847 159.511 24.9523 158.031 26.7629C156.552 28.5735 154.49 29.8152 152.197 30.2767C149.905 30.7381 147.523 30.3908 145.458 29.2937C143.393 28.1967 141.772 26.4178 140.871 24.2599C139.97 22.1021 139.845 19.6986 140.517 17.4587C141.188 15.2189 142.616 13.2811 144.556 11.9753C146.496 10.6695 148.828 10.0764 151.156 10.2971C153.484 10.5177 155.664 11.5384 157.324 13.1853L153.583 16.8996C152.678 16.0309 151.471 15.5484 150.217 15.5543C149.397 15.5569 148.591 15.7699 147.877 16.173C147.163 16.5761 146.564 17.1557 146.138 17.8563C145.712 18.557 145.472 19.3553 145.443 20.1749C145.414 20.9944 145.595 21.8078 145.97 22.5371C146.345 23.2665 146.901 23.8874 147.585 24.3405C148.268 24.7936 149.056 25.0637 149.874 25.1249C150.692 25.1861 151.512 25.0365 152.255 24.6902C152.999 24.344 153.641 23.8127 154.12 23.1474H150.217V19.5926H160.314Z" fill="url(#paint0_linear_10_126)" stroke="#713888" stroke-miterlimit="10"/>
<path d="M172.915 30.4331L169.789 25.074H166.507V30.4331H161.202V10.2512H169.708C171.203 10.2471 172.663 10.6948 173.899 11.5355C175.134 12.3762 176.086 13.5706 176.631 14.9621C177.175 16.3537 177.286 17.8773 176.949 19.3331C176.613 20.7889 175.844 22.1089 174.743 23.1199L179.025 30.4331H172.915ZM166.507 20.498H169.789C170.557 20.498 171.293 20.1931 171.836 19.6503C172.379 19.1075 172.684 18.3713 172.684 17.6037C172.684 16.8361 172.379 16.0999 171.836 15.5571C171.293 15.0143 170.557 14.7094 169.789 14.7094H166.507V20.498Z" fill="url(#paint1_linear_10_126)" stroke="#713888" stroke-miterlimit="10"/>
<path d="M179.589 10.2512H184.894V30.433H179.589V10.2512Z" fill="url(#paint2_linear_10_126)" stroke="#713888" stroke-miterlimit="10"/>
<path d="M201.775 30.433L192.245 20.8859V30.433H186.94V10.2512H189.095L198.652 19.7812V10.2512H203.955V30.433H201.775Z" fill="url(#paint3_linear_10_126)" stroke="#713888" stroke-miterlimit="10"/>
<path d="M206.002 10.2512H213.487C216.138 10.2925 218.666 11.3744 220.525 13.2632C222.385 15.1521 223.427 17.6964 223.427 20.347C223.427 22.9977 222.385 25.542 220.525 27.4309C218.666 29.3197 216.138 30.4015 213.487 30.4429H206.002V10.2512ZM211.278 25.1648H213.514C214.151 25.1792 214.784 25.0663 215.377 24.8326C215.969 24.599 216.509 24.2493 216.964 23.8042C217.419 23.359 217.781 22.8274 218.028 22.2404C218.275 21.6535 218.402 21.0231 218.402 20.3863C218.402 19.7495 218.275 19.1191 218.028 18.5322C217.781 17.9453 217.419 17.4136 216.964 16.9685C216.509 16.5233 215.969 16.1736 215.377 15.94C214.784 15.7063 214.151 15.5934 213.514 15.6078H211.278V25.1648Z" fill="url(#paint4_linear_10_126)" stroke="#713888" stroke-miterlimit="10"/>
<path d="M21.4153 59.3595C19.4097 59.1999 17.6421 58.0265 16.5669 56.146C14.9294 53.2787 15.2289 49.5177 17.3279 46.5718C18.9579 44.2888 22.3801 41.4313 29.4478 40.7193C29.7129 38.7554 29.7988 37.4003 29.7988 37.388C29.8052 37.1656 29.8562 36.9467 29.9487 36.7443C30.0412 36.5419 30.1735 36.3602 30.3376 36.2099C30.5017 36.0596 30.6943 35.9438 30.904 35.8693C31.1137 35.7948 31.3362 35.7632 31.5584 35.7764C31.7805 35.7896 31.9978 35.8472 32.1972 35.9459C32.3967 36.0446 32.5743 36.1823 32.7195 36.3509C32.8647 36.5196 32.9746 36.7156 33.0426 36.9275C33.1106 37.1394 33.1354 37.3628 33.1154 37.5844C33.1154 37.8054 33.027 38.9371 32.8282 40.5573C36.2185 40.5897 39.5982 40.9407 42.9228 41.6056C77.2105 48.1381 99.1746 45.9532 108.238 35.1172C108.52 34.7794 108.925 34.5673 109.363 34.5277C109.801 34.4881 110.237 34.6242 110.575 34.9061C110.913 35.1885 111.125 35.5935 111.165 36.0322C111.205 36.4708 111.068 36.9073 110.786 37.2456C105.435 43.6529 96.2705 47.3918 83.5368 48.359C72.6567 49.1863 58.7791 48.0129 42.2943 44.8779C39.0102 44.2105 35.6663 43.8814 32.3151 43.896C31.0877 50.6961 28.3873 58.8194 22.4096 59.3423C22.0792 59.3758 21.7466 59.3816 21.4153 59.3595ZM31.5222 36.2514C31.1936 36.234 30.8715 36.3474 30.6263 36.5668C30.3811 36.7863 30.2327 37.0939 30.2137 37.4224C30.2137 37.4224 30.1253 38.8561 29.8381 40.9501L29.816 41.1121L29.6515 41.1268C22.628 41.7946 19.2575 44.5932 17.6667 46.8222C15.6586 49.6331 15.3689 53.205 16.9302 55.9373C17.9367 57.6999 19.584 58.7973 21.4497 58.9446C21.7601 58.9703 22.0721 58.9703 22.3826 58.9446C28.1516 58.4536 30.7685 50.3524 31.9567 43.6701L31.9862 43.5032H32.1556C35.1751 43.4296 38.6193 43.7487 42.3901 44.4852C58.838 47.6127 72.6812 48.7837 83.5246 47.9589C96.1354 47.0014 105.204 43.3117 110.479 36.9952C110.691 36.7411 110.794 36.4134 110.764 36.0839C110.735 35.7544 110.576 35.45 110.322 35.2375C110.068 35.0269 109.742 34.9254 109.413 34.9553C109.085 34.9852 108.781 35.1441 108.57 35.3971C99.4127 46.3583 77.3038 48.5898 42.8565 42.0376C39.4778 41.3582 36.0413 41.0072 32.595 40.9894H32.3495L32.3789 40.7439C32.5999 39.0132 32.6809 37.798 32.6932 37.5525C32.7042 37.2263 32.5883 36.9085 32.37 36.6659C32.1516 36.4233 31.8478 36.2747 31.5222 36.2514ZM21.6264 56.4553C20.588 56.3718 19.6993 55.763 19.0905 54.6976C18.273 53.2639 17.9392 50.7206 19.6944 48.2633C20.6764 46.8885 23.2049 44.468 29.1188 43.7119L29.4011 43.675L29.3496 43.9574C28.3063 49.4613 26.2122 56.0993 22.1641 56.4529C21.9853 56.4696 21.8054 56.4704 21.6264 56.4553ZM28.8856 44.1808C23.3326 44.9565 20.9587 47.2248 20.0307 48.5235C18.3909 50.8213 18.6928 53.1878 19.4514 54.511C20.0774 55.6084 21.0299 56.1558 22.1272 56.0576C26.033 55.7041 28.0239 48.5996 28.8856 44.1808Z" fill="#311634"/>
<path d="M21.8938 60.0002C21.7171 60.0002 21.5403 60.0002 21.366 59.9805C19.1566 59.8038 17.1927 58.5076 16.0241 56.4528C14.2689 53.3768 14.5807 49.3606 16.822 46.2208C18.4815 43.8935 21.9184 40.9795 28.8952 40.1645C29.1064 38.4829 29.1776 37.3733 29.1776 37.3634C29.1951 37.0641 29.2715 36.7712 29.4023 36.5014C29.533 36.2315 29.7157 35.9901 29.9398 35.7909C30.1639 35.5916 30.425 35.4385 30.7083 35.3402C30.9915 35.2418 31.2914 35.2003 31.5907 35.2179C31.8901 35.2354 32.183 35.3118 32.4528 35.4426C32.7227 35.5733 32.9641 35.756 33.1633 35.9801C33.3626 36.2042 33.5157 36.4653 33.614 36.7486C33.7123 37.0318 33.7539 37.3317 33.7363 37.631C33.7363 37.8152 33.67 38.6768 33.5277 39.9485C36.7219 40.0294 39.9034 40.3817 43.038 41.0016C77.0876 47.4826 98.8627 45.3665 107.759 34.7171C108.148 34.2522 108.705 33.9606 109.308 33.9065C109.911 33.8524 110.512 34.0402 110.976 34.4286C111.441 34.817 111.733 35.3741 111.787 35.9774C111.841 36.5808 111.653 37.1809 111.265 37.6458C105.803 44.1807 96.4912 47.9981 83.5907 48.9801C72.654 49.8098 58.7249 48.6364 42.1861 45.4892C39.1086 44.8769 35.9805 44.5539 32.8427 44.5244C31.0187 54.2017 27.4419 59.5411 22.4707 59.9756C22.2793 59.9928 22.0902 60.0002 21.8938 60.0002ZM30.8346 37.4592C30.8346 37.4592 30.7487 38.8879 30.4541 41.0335L30.3657 41.6865L29.7103 41.7479C22.9224 42.3911 19.6893 45.0596 18.1722 47.1855C16.3065 49.8 16.0291 53.1142 17.4676 55.6304C18.371 57.209 19.8391 58.1909 21.4961 58.3308C21.7731 58.3529 22.0514 58.3529 22.3284 58.3308C27.6997 57.862 30.1841 50.0455 31.3305 43.5695L31.4484 42.8993L32.1284 42.8845C35.6088 42.8509 39.0832 43.18 42.4955 43.8665C58.8918 46.9769 72.6761 48.143 83.463 47.323C95.8996 46.3902 104.821 42.7643 109.991 36.5705C110.096 36.443 110.147 36.279 110.132 36.1144C110.116 35.9497 110.037 35.7977 109.91 35.6917C109.848 35.6392 109.777 35.5998 109.699 35.5757C109.622 35.5517 109.541 35.5435 109.461 35.5517C109.379 35.5575 109.299 35.5798 109.226 35.6174C109.153 35.6549 109.088 35.7069 109.036 35.7702C99.7219 46.918 77.4117 49.2231 42.7287 42.6243C39.3933 41.951 35.9999 41.6064 32.5972 41.5957H31.6472L31.7699 40.653C31.9835 38.9616 32.0645 37.744 32.0793 37.5157C32.0846 37.3484 32.0241 37.1857 31.9107 37.0627C31.7972 36.9396 31.64 36.866 31.4729 36.8577C31.3108 36.8524 31.1532 36.9109 31.0338 37.0206C30.9144 37.1303 30.8429 37.2825 30.8346 37.4445V37.4592ZM21.8717 57.0985C21.7711 57.0985 21.6729 57.0985 21.5747 57.0862C20.3301 56.9856 19.2573 56.2515 18.5502 55.0167C17.6395 53.4235 17.2614 50.5979 19.1861 47.9097C20.227 46.454 22.8905 43.8911 29.0401 43.103L30.1743 42.9606L29.9607 44.0825C28.3846 52.3973 25.7873 56.772 22.2179 57.0936C22.1033 57.0952 21.9879 57.096 21.8717 57.096V57.0985ZM28.0974 44.9172C23.3913 45.7691 21.3538 47.7354 20.5387 48.8745C19.0658 50.9317 19.326 53.0233 19.9913 54.1894C20.3448 54.8056 20.9904 55.5224 22.0706 55.4169C24.5451 55.2107 26.7153 51.3982 28.0974 44.9172Z" fill="#311634"/>
<path d="M110.442 35.0636C110.146 34.8181 109.765 34.6999 109.381 34.7349C108.998 34.7699 108.644 34.9551 108.397 35.2502C99.2922 46.1451 77.252 48.3545 42.8833 41.8195C39.4948 41.1394 36.0483 40.7892 32.5923 40.7737C32.8206 38.9792 32.8992 37.7394 32.909 37.5823C32.9266 37.1988 32.7938 36.8236 32.5389 36.5365C32.2839 36.2495 31.927 36.0733 31.544 36.0456C31.1596 36.0227 30.7819 36.1534 30.4938 36.4089C30.2056 36.6643 30.0307 37.0237 30.0073 37.408C30.0073 37.4228 29.9164 38.8466 29.6317 40.921C22.5542 41.5937 19.1296 44.4266 17.497 46.7023C15.4423 49.5795 15.1501 53.2447 16.7458 56.031C17.7867 57.855 19.4953 58.9892 21.4298 59.1438C21.7517 59.1708 22.0752 59.1708 22.397 59.1438C28.252 58.6381 30.9279 50.6228 32.1553 43.7049C35.1626 43.6337 38.5872 43.9504 42.3481 44.6746C58.8132 47.807 72.6712 48.978 83.5366 48.1507C96.2015 47.1884 105.319 43.4864 110.634 37.1036C110.877 36.8067 110.993 36.4261 110.957 36.0443C110.921 35.6625 110.736 35.3101 110.442 35.0636ZM29.1456 43.9356C28.2176 48.8258 26.185 55.9107 22.1466 56.2642C20.9609 56.3698 19.9372 55.7732 19.2695 54.6096C18.4839 53.2324 18.1648 50.7775 19.8611 48.4011C20.848 47.0092 23.3397 44.6721 29.1456 43.9356Z" fill="#552459"/>
<path d="M30.1913 17.513C30.1447 16.8119 29.9592 16.1271 29.6457 15.4983C29.3321 14.8695 28.8967 14.3093 28.3648 13.8503L20.3913 6.92007L18.0345 4.87758L13.9127 1.30077C12.8412 0.376018 11.4471 -0.0868201 10.0352 0.0134676C8.62338 0.113755 7.30869 0.769009 6.37862 1.83595L1.29941 7.67127C0.375455 8.74457 -0.0867755 10.1396 0.0134721 11.5523C0.11372 12.9649 0.768317 14.2807 1.83458 15.2128L16.2989 27.7623C17.3258 28.6527 18.6527 29.1197 20.011 29.0686C21.3693 29.0176 22.6574 28.4523 23.6146 27.4873L23.7913 27.6395L26.4009 36.1507C26.715 37.1742 27.4229 38.031 28.3688 38.5326C29.3146 39.0342 30.421 39.1395 31.4445 38.8253C32.468 38.5112 33.3248 37.8033 33.8264 36.8574C34.328 35.9116 34.4333 34.8052 34.1191 33.7817L31.4924 25.2141C31.4801 25.1748 31.4654 25.1355 31.4531 25.0962C31.4245 24.5983 31.2967 24.1112 31.077 23.6634C30.8574 23.2157 30.5504 22.8164 30.1741 22.4891L28.9172 21.3967C29.3756 20.8656 29.7242 20.2489 29.9429 19.5823C30.1615 18.9157 30.246 18.2124 30.1913 17.513Z" fill="#552459"/>
<path d="M24.2357 21.0164L22.2342 23.3229C21.9614 23.6373 21.9951 24.1133 22.3095 24.3861L27.0079 28.4632C27.3222 28.736 27.7982 28.7023 28.071 28.3879L30.0726 26.0813C30.3454 25.767 30.3117 25.291 29.9973 25.0182L25.2989 20.9411C24.9845 20.6683 24.5085 20.702 24.2357 21.0164Z" fill="#6D6E71"/>
<path d="M28.5103 23.4645L25.2503 24.4643C24.8057 24.6006 24.5558 25.0716 24.6922 25.5162L28.32 37.3452C28.4563 37.7898 28.9273 38.0397 29.3719 37.9033L32.6319 36.9035C33.0765 36.7672 33.3264 36.2962 33.19 35.8516L29.5623 24.0226C29.4259 23.578 28.9549 23.3281 28.5103 23.4645Z" fill="url(#paint5_linear_10_126)"/>
<path d="M24.5853 20.6146L22.5838 22.9211C22.311 23.2355 22.3447 23.7115 22.6591 23.9843L27.3575 28.0614C27.6719 28.3342 28.1479 28.3005 28.4207 27.9861L30.4222 25.6795C30.695 25.3652 30.6613 24.8892 30.3469 24.6164L25.6485 20.5393C25.3341 20.2665 24.8581 20.3002 24.5853 20.6146Z" fill="#808285"/>
<path d="M10.0913 3.25317L4.61763 9.56098C3.87121 10.4212 3.96342 11.7236 4.8236 12.47L19.8051 25.4703C20.6653 26.2167 21.9677 26.1245 22.7141 25.2643L28.1878 18.9565C28.9342 18.0963 28.842 16.7939 27.9818 16.0475L13.0003 3.0472C12.1401 2.30078 10.8377 2.39299 10.0913 3.25317Z" fill="#414042"/>
<path d="M21.2132 16.4752C21.0266 16.6885 20.7632 16.8196 20.4805 16.8398C20.1978 16.8601 19.9185 16.7678 19.7034 16.5832C19.4893 16.3965 19.3578 16.1327 19.3375 15.8493C19.3173 15.566 19.41 15.2862 19.5954 15.071L22.9979 11.1431L22.2614 10.5073L18.8614 14.4351C18.6751 14.6497 18.4113 14.7814 18.128 14.8015C17.8446 14.8215 17.5649 14.7281 17.3504 14.5419C17.1358 14.3557 17.0041 14.0919 16.984 13.8085C16.964 13.5252 17.0574 13.2455 17.2436 13.0309L20.6436 9.10307L19.9072 8.46479L16.5046 12.3926C16.413 12.5003 16.301 12.5888 16.175 12.6529C16.049 12.7171 15.9116 12.7556 15.7706 12.7663C15.6297 12.7771 15.488 12.7598 15.3537 12.7154C15.2195 12.6711 15.0954 12.6006 14.9885 12.508C14.8817 12.4154 14.7942 12.3026 14.7312 12.176C14.6682 12.0495 14.6309 11.9117 14.6215 11.7706C14.612 11.6296 14.6306 11.4881 14.6762 11.3542C14.7217 11.2204 14.7933 11.0969 14.8869 10.9909L18.2894 7.06304L17.5529 6.42476L14.1504 10.3526C13.9642 10.5672 13.7004 10.6989 13.417 10.719C13.1336 10.739 12.8539 10.6456 12.6394 10.4594C12.4249 10.2732 12.2931 10.0094 12.2731 9.72602C12.253 9.44266 12.3464 9.16294 12.5326 8.94841L15.9523 5.02792L15.2158 4.38964L11.8158 8.3175C11.6296 8.53203 11.3657 8.6638 11.0824 8.68383C10.799 8.70386 10.5193 8.6105 10.3048 8.42429C10.0902 8.23808 9.95846 7.97427 9.93843 7.6909C9.91841 7.40754 10.0118 7.12782 10.198 6.91329L13.6005 2.98543L12.9377 2.42326C12.162 1.7548 11.1535 1.42019 10.1321 1.49239C9.11064 1.56459 8.15922 2.03775 7.4853 2.80868L2.42327 8.64646C1.75373 9.42117 1.41838 10.4296 1.49061 11.451C1.56284 12.4724 2.03678 13.4236 2.80869 14.0964L17.273 26.6459C18.048 27.3148 19.0563 27.6497 20.0775 27.5775C21.0987 27.5053 22.0498 27.0318 22.7229 26.2604L27.7874 20.4227C28.4572 19.6471 28.7927 18.6379 28.7205 17.6157C28.6483 16.5935 28.1742 15.6415 27.402 14.9679L24.6157 12.5498L21.2132 16.4752Z" fill="url(#paint6_linear_10_126)"/>
<path d="M19.3529 25.3248L5.53661 13.3375C4.76569 12.6635 4.29253 11.7121 4.22032 10.6907C4.14812 9.66929 4.48274 8.66077 5.15119 7.8851L10.3433 1.90002C9.40698 2.01654 8.54626 2.47355 7.92524 3.18394L3.56532 8.21651C2.89701 8.99177 2.56246 9.9999 2.63467 11.0209C2.70687 12.0419 3.17997 12.9929 3.95074 13.6664L17.7694 25.6537C18.3247 26.1327 19.0047 26.444 19.7301 26.5514C20.4555 26.6587 21.1965 26.5577 21.8667 26.2601C20.9439 26.2587 20.0521 25.9269 19.3529 25.3248Z" fill="white"/>
<path d="M27.5379 26.9426C28.5033 26.9426 29.2858 26.1601 29.2858 25.1947C29.2858 24.2294 28.5033 23.4468 27.5379 23.4468C26.5726 23.4468 25.79 24.2294 25.79 25.1947C25.79 26.1601 26.5726 26.9426 27.5379 26.9426Z" fill="#A6A5A5"/>
<path d="M33.9099 38.5588L29.415 39.8992C29.0474 40.0118 28.6503 39.9762 28.3086 39.8001C27.9669 39.624 27.7076 39.3212 27.586 38.9565L26.3586 35.0875C26.3043 34.9062 26.2868 34.7159 26.3069 34.5277C26.3271 34.3395 26.3846 34.1572 26.476 33.9915C26.5674 33.8258 26.691 33.68 26.8394 33.5625C26.9879 33.4451 27.1582 33.3585 27.3406 33.3077L31.833 31.9698C32.2009 31.8564 32.5986 31.8916 32.9409 32.0678C33.2832 32.244 33.5429 32.5472 33.6644 32.9125L34.8919 36.7814C34.9468 36.9626 34.9649 37.1529 34.945 37.3411C34.9251 37.5294 34.8677 37.7117 34.7762 37.8774C34.6846 38.0431 34.5608 38.1888 34.412 38.3058C34.2632 38.4228 34.0925 38.5088 33.9099 38.5588Z" fill="url(#paint7_linear_10_126)"/>
<path d="M28.9881 40.3781C28.5873 40.381 28.1958 40.2566 27.8702 40.0228C27.5446 39.789 27.3017 39.4578 27.1764 39.077L25.9489 35.2081C25.878 34.9749 25.8543 34.7299 25.8792 34.4874C25.9041 34.2449 25.9771 34.0098 26.0939 33.7959C26.2107 33.5819 26.369 33.3934 26.5595 33.2414C26.75 33.0893 26.9689 32.9767 27.2034 32.9103L31.6959 31.5723C32.1755 31.4279 32.6925 31.4763 33.1369 31.7074C33.3548 31.8177 33.5486 31.9702 33.7071 32.1561C33.8655 32.3419 33.9855 32.5574 34.06 32.79L35.2874 36.6614C35.3605 36.8919 35.3858 37.1349 35.3617 37.3755C35.3377 37.6161 35.2648 37.8492 35.1475 38.0607C34.9091 38.495 34.5084 38.8172 34.033 38.9567L29.538 40.2971C29.3595 40.35 29.1743 40.3773 28.9881 40.3781ZM32.2581 32.3211C32.155 32.3213 32.0525 32.3362 31.9536 32.3653L27.4612 33.7057C27.3324 33.7417 27.2121 33.8031 27.1075 33.8864C27.0028 33.9696 26.9159 34.073 26.8519 34.1904C26.7878 34.3077 26.7479 34.4368 26.7345 34.5698C26.7211 34.7029 26.7344 34.8372 26.7738 34.965L28.0012 38.834C28.0873 39.0925 28.2711 39.3071 28.5133 39.4318C28.7556 39.5566 29.037 39.5817 29.2974 39.5017L33.7924 38.1638C33.9213 38.1262 34.0414 38.0635 34.1459 37.9792C34.2504 37.8949 34.3372 37.7908 34.4012 37.6728C34.4663 37.5574 34.5069 37.4298 34.5204 37.298C34.5339 37.1662 34.5201 37.0331 34.4798 36.9069L33.2523 33.0379C33.1844 32.8282 33.0514 32.6456 32.8726 32.5167C32.6938 32.3878 32.4785 32.3193 32.2581 32.3211Z" fill="#552459"/>
<defs>
<linearGradient id="paint0_linear_10_126" x1="150.232" y1="29.9376" x2="150.232" y2="13.7254" gradientUnits="userSpaceOnUse">
<stop stop-color="#A6A5A5"/>
<stop offset="1" stop-color="#D1D3D4"/>
</linearGradient>
<linearGradient id="paint1_linear_10_126" x1="12511.8" y1="2472.03" x2="12511.8" y2="1139.22" gradientUnits="userSpaceOnUse">
<stop stop-color="#A6A5A5"/>
<stop offset="1" stop-color="#D1D3D4"/>
</linearGradient>
<linearGradient id="paint2_linear_10_126" x1="4117.96" y1="2472.03" x2="4117.96" y2="1139.22" gradientUnits="userSpaceOnUse">
<stop stop-color="#A6A5A5"/>
<stop offset="1" stop-color="#D1D3D4"/>
</linearGradient>
<linearGradient id="paint3_linear_10_126" x1="13733.8" y1="2472.03" x2="13733.8" y2="1139.22" gradientUnits="userSpaceOnUse">
<stop stop-color="#A6A5A5"/>
<stop offset="1" stop-color="#D1D3D4"/>
</linearGradient>
<linearGradient id="paint4_linear_10_126" x1="15452" y1="2473.23" x2="15452" y2="1139.77" gradientUnits="userSpaceOnUse">
<stop stop-color="#A6A5A5"/>
<stop offset="1" stop-color="#D1D3D4"/>
</linearGradient>
<linearGradient id="paint5_linear_10_126" x1="26.5054" y1="31.4283" x2="31.3754" y2="29.9348" gradientUnits="userSpaceOnUse">
<stop stop-color="white"/>
<stop offset="1" stop-color="#A6A5A5"/>
</linearGradient>
<linearGradient id="paint6_linear_10_126" x1="-17140.9" y1="129229" x2="-16008.8" y2="127926" gradientUnits="userSpaceOnUse">
<stop stop-color="white"/>
<stop offset="1" stop-color="#A6A5A5"/>
</linearGradient>
<linearGradient id="paint7_linear_10_126" x1="-10790.9" y1="14534.4" x2="-10532.7" y2="14457.5" gradientUnits="userSpaceOnUse">
<stop stop-color="white"/>
<stop offset="1" stop-color="#A6A5A5"/>
</linearGradient>
</defs>
</svg>
