<svg width="226" height="60" viewBox="0 0 226 60" fill="none" xmlns="http://www.w3.org/2000/svg">
<path d="M213.487 7.8482H196.239V13.9855L190.102 7.8482H177.189V11.2851C176.266 10.2063 175.12 9.34037 173.831 8.74703C172.541 8.1537 171.138 7.84704 169.718 7.8482H158.789V11.2532C156.714 9.28805 154.026 8.09665 151.176 7.87895C148.326 7.66126 145.489 8.43053 143.139 10.0576L144.398 7.88011H132.728L130.226 12.1836L127.744 7.87275H116.069L116.191 8.08387C115.442 7.945 114.681 7.87434 113.918 7.87275H88.6646L81.398 14.501L74.1094 7.87275H68.3747V11.209C66.2323 9.21086 63.4524 8.0346 60.5265 7.88814C57.6006 7.74169 54.7171 8.63448 52.3859 10.4087C50.2207 8.75628 47.5706 7.86485 44.8469 7.87275C42.8646 7.87045 40.9103 8.33996 39.1454 9.24248C37.3805 10.145 35.8558 11.4546 34.6973 13.063C33.5387 14.6715 32.7796 16.5326 32.4827 18.4925C32.1858 20.4523 32.3596 22.4548 32.9898 24.3342C33.62 26.2136 34.6884 27.916 36.1068 29.3008C37.5251 30.6855 39.2527 31.7128 41.1467 32.2978C43.0407 32.8827 45.0467 33.0084 46.9989 32.6646C48.9511 32.3208 50.7934 31.5172 52.3736 30.3205C54.7078 32.0911 57.5913 32.9827 60.5176 32.8386C63.4439 32.6945 66.2258 31.5239 68.3747 29.5324V32.8539H78.5209V25.553L81.4103 28.165L84.2556 25.5653V32.8539H113.918C116.283 32.8534 118.599 32.1824 120.598 30.9189C122.597 29.6553 124.196 27.8509 125.211 25.715V32.8539H135.276V23.6726L137.792 19.3225C137.763 19.6588 137.746 20 137.746 20.3462C137.74 22.7861 138.449 25.1743 139.786 27.2152C141.123 29.2561 143.029 30.8603 145.269 31.8292C147.508 32.7982 149.982 33.0893 152.385 32.6667C154.788 32.2441 157.015 31.1262 158.789 29.4514V32.8637H168.918V28.3811L171.528 32.8539H194.655V26.7166L200.773 32.8539H213.487C216.804 32.8539 219.986 31.5361 222.331 29.1905C224.677 26.8448 225.995 23.6634 225.995 20.3462C225.995 17.0289 224.677 13.8475 222.331 11.5018C219.986 9.15616 216.804 7.83838 213.487 7.83838V7.8482ZM44.8469 22.6808C43.4378 22.6808 42.5294 21.7725 42.5294 20.3633C42.5294 18.9542 43.4378 18.0459 44.8469 18.0459C45.1528 18.0301 45.4589 18.0753 45.7472 18.179C46.0355 18.2827 46.3002 18.4427 46.526 18.6498L47.4589 19.5827C47.4442 19.8478 47.4319 20.1154 47.4319 20.383C47.4319 20.6506 47.4319 20.8494 47.4515 21.0802L46.499 22.0621C46.2788 22.2701 46.0191 22.432 45.7354 22.5383C45.4517 22.6445 45.1496 22.693 44.8469 22.6808ZM59.8955 22.7618C59.2665 22.7497 58.667 22.4929 58.2242 22.046C57.7815 21.5992 57.5303 20.9973 57.524 20.3682C57.5255 19.896 57.6671 19.4348 57.9308 19.0431C58.1945 18.6513 58.5686 18.3466 59.0056 18.1676C59.4426 17.9886 59.9229 17.9432 60.3857 18.0373C60.8484 18.1314 61.2729 18.3607 61.6053 18.6962C61.9377 19.0317 62.163 19.4583 62.2528 19.9219C62.3426 20.3855 62.2928 20.8654 62.1098 21.3007C61.9267 21.736 61.6186 22.1072 61.2244 22.3673C60.8302 22.6274 60.3677 22.7647 59.8955 22.7618ZM114.127 22.7618V18.0533C114.721 18.0962 115.277 18.3625 115.682 18.7986C116.088 19.2347 116.314 19.8082 116.314 20.4038C116.314 20.9995 116.088 21.573 115.682 22.0091C115.277 22.4452 114.721 22.7115 114.127 22.7544V22.7618ZM156.725 17.1769L158.789 15.127V17.1769H156.725ZM169.792 18.0925H168.918V17.1327H169.792C169.922 17.1327 170.047 17.1844 170.139 17.2765C170.231 17.3686 170.283 17.4934 170.283 17.6237C170.284 17.6876 170.273 17.7512 170.248 17.8104C170.224 17.8696 170.187 17.923 170.141 17.9674C170.095 18.0117 170.04 18.0459 169.98 18.0679C169.92 18.0899 169.856 18.0991 169.792 18.095V18.0925ZM213.691 22.7569V18.0263C214.287 18.0693 214.846 18.3367 215.253 18.7746C215.66 19.2125 215.887 19.7885 215.887 20.3867C215.887 20.9848 215.66 21.5608 215.253 21.9987C214.846 22.4366 214.287 22.704 213.691 22.7471V22.7569Z" fill="#552459"/>
<path d="M59.8958 10.2861C57.9031 10.2857 55.955 10.8758 54.2976 11.982C52.6402 13.0882 51.3478 14.6609 50.5838 16.5013C49.8198 18.3416 49.6184 20.3672 50.0051 22.322C50.3917 24.2768 51.3491 26.0731 52.7563 27.484C54.1634 28.8949 55.9572 29.8571 57.9109 30.249C59.8647 30.6409 61.8907 30.4449 63.7332 29.6858C65.5756 28.9268 67.1517 27.6386 68.2623 25.9842C69.373 24.3297 69.9683 22.3832 69.9732 20.3905C69.9764 19.065 69.7181 17.7518 69.2132 16.5262C68.7082 15.3006 67.9665 14.1866 67.0304 13.248C66.0944 12.3094 64.9824 11.5647 63.7581 11.0565C62.5338 10.5482 61.2213 10.2865 59.8958 10.2861ZM59.8958 25.1752C58.9439 25.1752 58.0134 24.8928 57.2221 24.3639C56.4307 23.835 55.814 23.0832 55.4499 22.2037C55.0859 21.3242 54.9909 20.3565 55.177 19.423C55.363 18.4895 55.8218 17.6322 56.4952 16.9595C57.1686 16.2868 58.0264 15.8289 58.9601 15.6438C59.8938 15.4587 60.8614 15.5547 61.7405 15.9196C62.6196 16.2845 63.3708 16.902 63.8989 17.6939C64.427 18.4858 64.7084 19.4166 64.7074 20.3685C64.7048 21.6433 64.1969 22.8652 63.2949 23.7662C62.393 24.6672 61.1706 25.1739 59.8958 25.1752Z" fill="white"/>
<path d="M44.8468 25.0942C42.1046 25.0942 40.1162 23.1057 40.1162 20.3636C40.1162 17.6215 42.1046 15.6354 44.8468 15.6354C45.4701 15.6196 46.0903 15.7277 46.6715 15.9536C47.2526 16.1795 47.7831 16.5186 48.2321 16.9513L51.9415 13.2149C51.0107 12.2826 49.9046 11.5438 48.6869 11.0412C47.4693 10.5385 46.1641 10.2819 44.8468 10.2862C43.1863 10.2835 41.5509 10.691 40.0859 11.4726C38.6209 12.2541 37.3717 13.3855 36.4492 14.7661C35.5267 16.1467 34.9596 17.7338 34.7982 19.3864C34.6368 21.039 34.8862 22.7058 35.5242 24.2388C36.1621 25.7718 37.1689 27.1235 38.4551 28.1737C39.7412 29.2239 41.2669 29.9401 42.8965 30.2586C44.5261 30.5772 46.2091 30.4883 47.7961 29.9997C49.383 29.5112 50.8247 28.6382 51.993 27.4583L48.2321 23.7514C47.7884 24.1931 47.2595 24.54 46.6775 24.7708C46.0955 25.0017 45.4726 25.1117 44.8468 25.0942Z" fill="white"/>
<path d="M81.4031 17.7564L73.1792 10.2861H70.7856V30.441H76.1079V20.123L81.4031 24.9051L86.6689 20.096V30.441H91.9912V10.2861H89.5976L81.4031 17.7564Z" fill="white"/>
<path d="M93.0024 30.441H105.525V26.1154H98.2977V22.406H104.693V17.9455H98.2977V14.6657H105.525V10.2861H93.0024V30.441Z" fill="white"/>
<path d="M113.919 10.2859H106.446V30.4334H113.919C116.564 30.3921 119.088 29.3121 120.944 27.4265C122.801 25.5408 123.841 23.0009 123.841 20.3548C123.841 17.7087 122.801 15.1687 120.944 13.2831C119.088 11.3974 116.564 10.3174 113.919 10.2761V10.2859ZM113.946 25.175H111.714V15.6352H113.946C115.211 15.6352 116.424 16.1377 117.318 17.0323C118.213 17.9268 118.715 19.14 118.715 20.4051C118.715 21.6701 118.213 22.8834 117.318 23.7779C116.424 24.6724 115.211 25.175 113.946 25.175Z" fill="white"/>
<path d="M134.117 10.2861L130.221 17.0052L126.35 10.2861H120.25L127.614 23.0247V30.441H132.853V23.0247L140.218 10.2861H134.117Z" fill="white"/>
<path d="M160.314 19.5926V20.3463C160.318 22.6847 159.511 24.9523 158.031 26.7629C156.552 28.5735 154.49 29.8152 152.197 30.2767C149.905 30.7381 147.523 30.3908 145.458 29.2937C143.393 28.1967 141.772 26.4178 140.871 24.2599C139.97 22.1021 139.845 19.6986 140.517 17.4587C141.188 15.2189 142.616 13.2811 144.556 11.9753C146.496 10.6695 148.828 10.0764 151.156 10.2971C153.484 10.5177 155.664 11.5384 157.324 13.1853L153.583 16.8996C152.678 16.0309 151.471 15.5484 150.217 15.5543C149.397 15.5569 148.591 15.7699 147.877 16.173C147.163 16.5761 146.564 17.1557 146.138 17.8563C145.712 18.557 145.472 19.3553 145.443 20.1749C145.414 20.9944 145.595 21.8078 145.97 22.5371C146.345 23.2665 146.901 23.8874 147.585 24.3405C148.268 24.7936 149.056 25.0637 149.874 25.1249C150.692 25.1861 151.512 25.0365 152.255 24.6902C152.999 24.344 153.641 23.8127 154.12 23.1474H150.217V19.5926H160.314Z" fill="url(#paint0_linear_10_5)" stroke="#713888" stroke-miterlimit="10"/>
<path d="M172.915 30.4331L169.789 25.074H166.507V30.4331H161.202V10.2512H169.708C171.203 10.2471 172.663 10.6948 173.899 11.5355C175.134 12.3762 176.086 13.5706 176.631 14.9621C177.175 16.3537 177.286 17.8773 176.949 19.3331C176.613 20.7889 175.844 22.1089 174.743 23.1199L179.025 30.4331H172.915ZM166.507 20.498H169.789C170.557 20.498 171.293 20.1931 171.836 19.6503C172.379 19.1075 172.684 18.3713 172.684 17.6037C172.684 16.8361 172.379 16.0999 171.836 15.5571C171.293 15.0143 170.557 14.7094 169.789 14.7094H166.507V20.498Z" fill="url(#paint1_linear_10_5)" stroke="#713888" stroke-miterlimit="10"/>
<path d="M179.589 10.2512H184.894V30.433H179.589V10.2512Z" fill="url(#paint2_linear_10_5)" stroke="#713888" stroke-miterlimit="10"/>
<path d="M201.775 30.433L192.245 20.8859V30.433H186.94V10.2512H189.095L198.652 19.7812V10.2512H203.955V30.433H201.775Z" fill="url(#paint3_linear_10_5)" stroke="#713888" stroke-miterlimit="10"/>
<path d="M206.002 10.2512H213.487C216.138 10.2925 218.666 11.3744 220.525 13.2632C222.385 15.1521 223.427 17.6964 223.427 20.347C223.427 22.9977 222.385 25.542 220.525 27.4309C218.666 29.3197 216.138 30.4015 213.487 30.4429H206.002V10.2512ZM211.278 25.1648H213.514C214.151 25.1792 214.784 25.0663 215.377 24.8326C215.969 24.599 216.509 24.2493 216.964 23.8042C217.419 23.359 217.781 22.8274 218.028 22.2404C218.275 21.6535 218.402 21.0231 218.402 20.3863C218.402 19.7495 218.275 19.1191 218.028 18.5322C217.781 17.9453 217.419 17.4136 216.964 16.9685C216.509 16.5233 215.969 16.1736 215.377 15.94C214.784 15.7063 214.151 15.5934 213.514 15.6078H211.278V25.1648Z" fill="url(#paint4_linear_10_5)" stroke="#713888" stroke-miterlimit="10"/>
<path d="M21.4153 59.3595C19.4097 59.1999 17.6421 58.0265 16.5669 56.146C14.9294 53.2787 15.2289 49.5177 17.3279 46.5718C18.9579 44.2888 22.3801 41.4313 29.4478 40.7193C29.7129 38.7554 29.7988 37.4003 29.7988 37.388C29.8052 37.1656 29.8562 36.9467 29.9487 36.7443C30.0412 36.5419 30.1735 36.3602 30.3376 36.2099C30.5017 36.0596 30.6943 35.9438 30.904 35.8693C31.1137 35.7948 31.3362 35.7632 31.5584 35.7764C31.7805 35.7896 31.9978 35.8472 32.1972 35.9459C32.3967 36.0446 32.5743 36.1823 32.7195 36.3509C32.8647 36.5196 32.9746 36.7156 33.0426 36.9275C33.1106 37.1394 33.1354 37.3628 33.1154 37.5844C33.1154 37.8054 33.027 38.9371 32.8282 40.5573C36.2185 40.5897 39.5982 40.9407 42.9228 41.6056C77.2105 48.1381 99.1746 45.9532 108.238 35.1172C108.52 34.7794 108.925 34.5673 109.363 34.5277C109.801 34.4881 110.237 34.6242 110.575 34.9061C110.913 35.1885 111.125 35.5935 111.165 36.0322C111.205 36.4708 111.068 36.9073 110.786 37.2456C105.435 43.6529 96.2705 47.3918 83.5368 48.359C72.6567 49.1863 58.7791 48.0129 42.2943 44.8779C39.0102 44.2105 35.6663 43.8814 32.3151 43.896C31.0877 50.6961 28.3873 58.8194 22.4096 59.3423C22.0792 59.3758 21.7466 59.3816 21.4153 59.3595ZM31.5222 36.2514C31.1936 36.234 30.8715 36.3474 30.6263 36.5668C30.3811 36.7863 30.2327 37.0939 30.2137 37.4224C30.2137 37.4224 30.1253 38.8561 29.8381 40.9501L29.816 41.1121L29.6515 41.1268C22.628 41.7946 19.2575 44.5932 17.6667 46.8222C15.6586 49.6331 15.3689 53.205 16.9302 55.9373C17.9367 57.6999 19.584 58.7973 21.4497 58.9446C21.7601 58.9703 22.0721 58.9703 22.3826 58.9446C28.1516 58.4536 30.7685 50.3524 31.9567 43.6701L31.9862 43.5032H32.1556C35.1751 43.4296 38.6193 43.7487 42.3901 44.4852C58.838 47.6127 72.6812 48.7837 83.5246 47.9589C96.1354 47.0014 105.204 43.3117 110.479 36.9952C110.691 36.7411 110.794 36.4134 110.764 36.0839C110.735 35.7544 110.576 35.45 110.322 35.2375C110.068 35.0269 109.742 34.9254 109.413 34.9553C109.085 34.9852 108.781 35.1441 108.57 35.3971C99.4127 46.3583 77.3038 48.5898 42.8565 42.0376C39.4778 41.3582 36.0413 41.0072 32.595 40.9894H32.3495L32.3789 40.7439C32.5999 39.0132 32.6809 37.798 32.6932 37.5525C32.7042 37.2263 32.5883 36.9085 32.37 36.6659C32.1516 36.4233 31.8478 36.2747 31.5222 36.2514ZM21.6264 56.4553C20.588 56.3718 19.6993 55.763 19.0905 54.6976C18.273 53.2639 17.9392 50.7206 19.6944 48.2633C20.6764 46.8885 23.2049 44.468 29.1188 43.7119L29.4011 43.675L29.3496 43.9574C28.3063 49.4613 26.2122 56.0993 22.1641 56.4529C21.9853 56.4696 21.8054 56.4704 21.6264 56.4553ZM28.8856 44.1808C23.3326 44.9565 20.9587 47.2248 20.0307 48.5235C18.3909 50.8213 18.6928 53.1878 19.4514 54.511C20.0774 55.6084 21.0299 56.1558 22.1272 56.0576C26.033 55.7041 28.0239 48.5996 28.8856 44.1808Z" fill="#311634"/>
<path d="M21.8938 60.0002C21.7171 60.0002 21.5403 60.0002 21.366 59.9806C19.1566 59.8039 17.1927 58.5077 16.0241 56.4529C14.2689 53.3769 14.5807 49.3607 16.822 46.2208C18.4815 43.8936 21.9184 40.9796 28.8952 40.1646C29.1064 38.4829 29.1776 37.3733 29.1776 37.3635C29.1951 37.0642 29.2715 36.7712 29.4023 36.5014C29.533 36.2316 29.7157 35.9902 29.9398 35.7909C30.1639 35.5917 30.425 35.4385 30.7083 35.3402C30.9915 35.2419 31.2914 35.2003 31.5907 35.2179C31.8901 35.2355 32.183 35.3118 32.4528 35.4426C32.7227 35.5734 32.9641 35.7561 33.1633 35.9801C33.3626 36.2042 33.5157 36.4654 33.614 36.7486C33.7123 37.0319 33.7539 37.3318 33.7363 37.6311C33.7363 37.8152 33.67 38.6769 33.5277 39.9485C36.7219 40.0295 39.9034 40.3818 43.038 41.0017C77.0876 47.4827 98.8627 45.3665 107.759 34.7171C108.148 34.2522 108.705 33.9607 109.308 33.9066C109.911 33.8525 110.512 34.0403 110.976 34.4287C111.441 34.817 111.733 35.3742 111.787 35.9775C111.841 36.5808 111.653 37.181 111.265 37.6458C105.803 44.1808 96.4912 47.9982 83.5907 48.9801C72.654 49.8099 58.7249 48.6365 42.1861 45.4893C39.1086 44.877 35.9805 44.554 32.8427 44.5245C31.0187 54.2017 27.4419 59.5412 22.4707 59.9757C22.2793 59.9929 22.0902 60.0002 21.8938 60.0002ZM30.8346 37.4593C30.8346 37.4593 30.7487 38.888 30.4541 41.0336L30.3657 41.6866L29.7103 41.748C22.9224 42.3912 19.6893 45.0597 18.1722 47.1856C16.3065 49.8001 16.0291 53.1142 17.4676 55.6305C18.371 57.209 19.8391 58.191 21.4961 58.3309C21.7731 58.353 22.0514 58.353 22.3284 58.3309C27.6997 57.862 30.1841 50.0456 31.3305 43.5695L31.4484 42.8993L32.1284 42.8846C35.6088 42.851 39.0832 43.1801 42.4955 43.8666C58.8918 46.9769 72.6761 48.143 83.463 47.3231C95.8996 46.3902 104.821 42.7643 109.991 36.5706C110.096 36.4431 110.147 36.2791 110.132 36.1144C110.116 35.9498 110.037 35.7978 109.91 35.6917C109.848 35.6393 109.777 35.5998 109.699 35.5758C109.622 35.5517 109.541 35.5436 109.461 35.5518C109.379 35.5576 109.299 35.5799 109.226 35.6175C109.153 35.655 109.088 35.707 109.036 35.7703C99.7219 46.918 77.4117 49.2232 42.7287 42.6244C39.3933 41.951 35.9999 41.6065 32.5972 41.5958H31.6472L31.7699 40.6531C31.9835 38.9617 32.0645 37.744 32.0793 37.5157C32.0846 37.3485 32.0241 37.1858 31.9107 37.0627C31.7972 36.9397 31.64 36.8661 31.4729 36.8578C31.3108 36.8524 31.1532 36.9109 31.0338 37.0206C30.9144 37.1304 30.8429 37.2826 30.8346 37.4445V37.4593ZM21.8717 57.0985C21.7711 57.0985 21.6729 57.0985 21.5747 57.0863C20.3301 56.9856 19.2573 56.2516 18.5502 55.0168C17.6395 53.4235 17.2614 50.5979 19.1861 47.9098C20.227 46.454 22.8905 43.8911 29.0401 43.1031L30.1743 42.9607L29.9607 44.0826C28.3846 52.3974 25.7873 56.772 22.2179 57.0936C22.1033 57.0953 21.9879 57.0961 21.8717 57.0961V57.0985ZM28.0974 44.9173C23.3913 45.7691 21.3538 47.7355 20.5387 48.8746C19.0658 50.9318 19.326 53.0234 19.9913 54.1895C20.3448 54.8057 20.9904 55.5225 22.0706 55.4169C24.5451 55.2107 26.7153 51.3982 28.0974 44.9173Z" fill="#311634"/>
<path d="M110.442 35.0637C110.146 34.8182 109.765 34.7001 109.381 34.735C108.998 34.77 108.644 34.9552 108.397 35.2503C99.2922 46.1452 77.252 48.3546 42.8833 41.8196C39.4948 41.1396 36.0483 40.7893 32.5923 40.7738C32.8206 38.9793 32.8992 37.7396 32.909 37.5825C32.9266 37.1989 32.7938 36.8237 32.5389 36.5366C32.2839 36.2496 31.927 36.0734 31.544 36.0457C31.1596 36.0229 30.7819 36.1535 30.4938 36.409C30.2056 36.6644 30.0307 37.0238 30.0073 37.4082C30.0073 37.4229 29.9164 38.8467 29.6317 40.9211C22.5542 41.5938 19.1296 44.4267 17.497 46.7025C15.4423 49.5796 15.1501 53.2448 16.7458 56.0311C17.7867 57.8551 19.4953 58.9893 21.4298 59.1439C21.7517 59.1709 22.0752 59.1709 22.397 59.1439C28.252 58.6382 30.9279 50.6229 32.1553 43.705C35.1626 43.6338 38.5872 43.9505 42.3481 44.6747C58.8132 47.8072 72.6712 48.9782 83.5366 48.1508C96.2015 47.1885 105.319 43.4865 110.634 37.1037C110.877 36.8068 110.993 36.4263 110.957 36.0444C110.921 35.6626 110.736 35.3103 110.442 35.0637ZM29.1456 43.9358C28.2176 48.8259 26.185 55.9108 22.1466 56.2643C20.9609 56.3699 19.9372 55.7733 19.2695 54.6097C18.4839 53.2325 18.1648 50.7776 19.8611 48.4012C20.848 47.0093 23.3397 44.6722 29.1456 43.9358Z" fill="#552459"/>
<path d="M30.1913 17.513C30.1447 16.8119 29.9592 16.1271 29.6457 15.4983C29.3321 14.8695 28.8967 14.3093 28.3648 13.8503L20.3913 6.92007L18.0345 4.87758L13.9127 1.30077C12.8412 0.376018 11.4471 -0.0868201 10.0352 0.0134676C8.62338 0.113755 7.30869 0.769009 6.37862 1.83595L1.29941 7.67127C0.375455 8.74457 -0.0867755 10.1396 0.0134721 11.5523C0.11372 12.9649 0.768317 14.2807 1.83458 15.2128L16.2989 27.7623C17.3258 28.6527 18.6527 29.1197 20.011 29.0686C21.3693 29.0176 22.6574 28.4523 23.6146 27.4873L23.7913 27.6395L26.4009 36.1507C26.715 37.1742 27.4229 38.031 28.3688 38.5326C29.3146 39.0342 30.421 39.1395 31.4445 38.8253C32.468 38.5112 33.3248 37.8033 33.8264 36.8574C34.328 35.9116 34.4333 34.8052 34.1191 33.7817L31.4924 25.2141C31.4801 25.1748 31.4654 25.1355 31.4531 25.0962C31.4245 24.5983 31.2967 24.1112 31.077 23.6634C30.8574 23.2157 30.5504 22.8164 30.1741 22.4891L28.9172 21.3967C29.3756 20.8656 29.7242 20.2489 29.9429 19.5823C30.1615 18.9157 30.246 18.2124 30.1913 17.513Z" fill="#552459"/>
<path d="M24.2357 21.0163L22.2342 23.3229C21.9614 23.6372 21.9951 24.1132 22.3095 24.386L27.0079 28.4631C27.3222 28.7359 27.7982 28.7022 28.071 28.3878L30.0726 26.0813C30.3454 25.7669 30.3117 25.2909 29.9973 25.0181L25.2989 20.941C24.9845 20.6682 24.5085 20.7019 24.2357 21.0163Z" fill="#6D6E71"/>
<path d="M28.5103 23.4645L25.2503 24.4643C24.8057 24.6006 24.5558 25.0716 24.6922 25.5162L28.32 37.3452C28.4563 37.7898 28.9273 38.0397 29.3719 37.9033L32.6319 36.9035C33.0765 36.7672 33.3264 36.2962 33.19 35.8516L29.5623 24.0226C29.4259 23.578 28.9549 23.3281 28.5103 23.4645Z" fill="url(#paint5_linear_10_5)"/>
<path d="M24.5853 20.6147L22.5838 22.9213C22.311 23.2356 22.3447 23.7116 22.6591 23.9844L27.3575 28.0615C27.6719 28.3343 28.1479 28.3006 28.4207 27.9862L30.4222 25.6797C30.695 25.3653 30.6613 24.8893 30.3469 24.6165L25.6485 20.5394C25.3341 20.2666 24.8581 20.3003 24.5853 20.6147Z" fill="#808285"/>
<path d="M10.0913 3.25311L4.61763 9.56092C3.87121 10.4211 3.96342 11.7235 4.8236 12.4699L19.8051 25.4702C20.6653 26.2167 21.9677 26.1244 22.7141 25.2643L28.1878 18.9564C28.9342 18.0963 28.842 16.7939 27.9818 16.0474L13.0003 3.04714C12.1401 2.30071 10.8377 2.39293 10.0913 3.25311Z" fill="#414042"/>
<path d="M21.2132 16.4751C21.0266 16.6885 20.7632 16.8195 20.4805 16.8398C20.1978 16.86 19.9185 16.7678 19.7034 16.5831C19.4893 16.3964 19.3578 16.1326 19.3375 15.8493C19.3173 15.5659 19.41 15.2861 19.5954 15.0709L22.9979 11.143L22.2614 10.5072L18.8614 14.4351C18.6751 14.6496 18.4113 14.7814 18.128 14.8014C17.8446 14.8214 17.5649 14.7281 17.3504 14.5419C17.1358 14.3557 17.0041 14.0918 16.984 13.8085C16.964 13.5251 17.0574 13.2454 17.2436 13.0309L20.6436 9.10301L19.9072 8.46473L16.5046 12.3926C16.413 12.5003 16.301 12.5887 16.175 12.6529C16.049 12.717 15.9116 12.7555 15.7706 12.7663C15.6297 12.777 15.488 12.7597 15.3537 12.7154C15.2195 12.671 15.0954 12.6005 14.9885 12.5079C14.8817 12.4154 14.7942 12.3025 14.7312 12.176C14.6682 12.0494 14.6309 11.9116 14.6215 11.7706C14.612 11.6295 14.6306 11.488 14.6762 11.3542C14.7217 11.2203 14.7933 11.0968 14.8869 10.9908L18.2894 7.06298L17.5529 6.4247L14.1504 10.3526C13.9642 10.5671 13.7004 10.6989 13.417 10.7189C13.1336 10.7389 12.8539 10.6456 12.6394 10.4593C12.4249 10.2731 12.2931 10.0093 12.2731 9.72596C12.253 9.4426 12.3464 9.16288 12.5326 8.94835L15.9523 5.02786L15.2158 4.38958L11.8158 8.31744C11.6296 8.53197 11.3657 8.66374 11.0824 8.68377C10.799 8.7038 10.5193 8.61044 10.3048 8.42423C10.0902 8.23802 9.95846 7.97421 9.93843 7.69084C9.91841 7.40748 10.0118 7.12776 10.198 6.91323L13.6005 2.98537L12.9377 2.4232C12.162 1.75474 11.1535 1.42013 10.1321 1.49233C9.11064 1.56453 8.15922 2.03769 7.4853 2.80862L2.42327 8.64639C1.75373 9.42111 1.41838 10.4295 1.49061 11.4509C1.56284 12.4723 2.03678 13.4235 2.80869 14.0963L17.273 26.6458C18.048 27.3147 19.0563 27.6497 20.0775 27.5775C21.0987 27.5052 22.0498 27.0317 22.7229 26.2604L27.7874 20.4226C28.4572 19.6471 28.7927 18.6379 28.7205 17.6157C28.6483 16.5934 28.1742 15.6414 27.402 14.9678L24.6157 12.5497L21.2132 16.4751Z" fill="url(#paint6_linear_10_5)"/>
<path d="M19.3529 25.3249L5.53661 13.3376C4.76569 12.6637 4.29253 11.7122 4.22032 10.6908C4.14812 9.66941 4.48274 8.66089 5.15119 7.88522L10.3433 1.90015C9.40698 2.01666 8.54626 2.47368 7.92524 3.18406L3.56532 8.21663C2.89701 8.9919 2.56246 10 2.63467 11.021C2.70687 12.042 3.17997 12.993 3.95074 13.6665L17.7694 25.6539C18.3247 26.1328 19.0047 26.4441 19.7301 26.5515C20.4555 26.6589 21.1965 26.5578 21.8667 26.2602C20.9439 26.2588 20.0521 25.927 19.3529 25.3249Z" fill="white"/>
<path d="M27.5379 26.9426C28.5033 26.9426 29.2858 26.16 29.2858 25.1947C29.2858 24.2293 28.5033 23.4468 27.5379 23.4468C26.5726 23.4468 25.79 24.2293 25.79 25.1947C25.79 26.16 26.5726 26.9426 27.5379 26.9426Z" fill="#A6A5A5"/>
<path d="M33.9099 38.5588L29.415 39.8992C29.0474 40.0118 28.6503 39.9763 28.3086 39.8001C27.9669 39.624 27.7076 39.3213 27.586 38.9565L26.3586 35.0876C26.3043 34.9063 26.2868 34.7159 26.3069 34.5278C26.3271 34.3396 26.3846 34.1573 26.476 33.9916C26.5674 33.8258 26.691 33.68 26.8394 33.5626C26.9879 33.4452 27.1582 33.3586 27.3406 33.3078L31.833 31.9698C32.2009 31.8565 32.5986 31.8917 32.9409 32.0679C33.2832 32.2441 33.5429 32.5472 33.6644 32.9125L34.8919 36.7815C34.9468 36.9626 34.9649 37.1529 34.945 37.3412C34.9251 37.5294 34.8677 37.7118 34.7762 37.8775C34.6846 38.0432 34.5608 38.1888 34.412 38.3059C34.2632 38.4229 34.0925 38.5089 33.9099 38.5588Z" fill="url(#paint7_linear_10_5)"/>
<path d="M28.9881 40.3782C28.5873 40.3811 28.1958 40.2567 27.8702 40.0229C27.5446 39.789 27.3017 39.4579 27.1764 39.0771L25.9489 35.2081C25.878 34.9749 25.8543 34.7299 25.8792 34.4874C25.9041 34.245 25.9771 34.0099 26.0939 33.7959C26.2107 33.582 26.369 33.3935 26.5595 33.2414C26.75 33.0894 26.9689 32.9768 27.2034 32.9103L31.6959 31.5724C32.1755 31.4279 32.6925 31.4764 33.1369 31.7074C33.3548 31.8177 33.5486 31.9703 33.7071 32.1561C33.8655 32.342 33.9855 32.5574 34.06 32.79L35.2874 36.6614C35.3605 36.8919 35.3858 37.1349 35.3617 37.3755C35.3377 37.6161 35.2648 37.8493 35.1475 38.0607C34.9091 38.4951 34.5084 38.8173 34.033 38.9568L29.538 40.2972C29.3595 40.3501 29.1743 40.3774 28.9881 40.3782ZM32.2581 32.3212C32.155 32.3214 32.0525 32.3363 31.9536 32.3653L27.4612 33.7057C27.3324 33.7418 27.2121 33.8032 27.1075 33.8865C27.0028 33.9697 26.9159 34.0731 26.8519 34.1904C26.7878 34.3078 26.7479 34.4368 26.7345 34.5699C26.7211 34.7029 26.7344 34.8373 26.7738 34.9651L28.0012 38.834C28.0873 39.0925 28.2711 39.3071 28.5133 39.4319C28.7556 39.5567 29.037 39.5818 29.2974 39.5018L33.7924 38.1638C33.9213 38.1263 34.0414 38.0635 34.1459 37.9793C34.2504 37.895 34.3372 37.7909 34.4012 37.6729C34.4663 37.5575 34.5069 37.4299 34.5204 37.2981C34.5339 37.1663 34.5201 37.0331 34.4798 36.9069L33.2523 33.038C33.1844 32.8283 33.0514 32.6457 32.8726 32.5168C32.6938 32.3878 32.4785 32.3193 32.2581 32.3212Z" fill="#552459"/>
<defs>
<linearGradient id="paint0_linear_10_5" x1="150.232" y1="29.9376" x2="150.232" y2="13.7254" gradientUnits="userSpaceOnUse">
<stop stop-color="#A6A5A5"/>
<stop offset="1" stop-color="#D1D3D4"/>
</linearGradient>
<linearGradient id="paint1_linear_10_5" x1="12511.8" y1="2472.03" x2="12511.8" y2="1139.22" gradientUnits="userSpaceOnUse">
<stop stop-color="#A6A5A5"/>
<stop offset="1" stop-color="#D1D3D4"/>
</linearGradient>
<linearGradient id="paint2_linear_10_5" x1="4117.96" y1="2472.03" x2="4117.96" y2="1139.22" gradientUnits="userSpaceOnUse">
<stop stop-color="#A6A5A5"/>
<stop offset="1" stop-color="#D1D3D4"/>
</linearGradient>
<linearGradient id="paint3_linear_10_5" x1="13733.8" y1="2472.03" x2="13733.8" y2="1139.22" gradientUnits="userSpaceOnUse">
<stop stop-color="#A6A5A5"/>
<stop offset="1" stop-color="#D1D3D4"/>
</linearGradient>
<linearGradient id="paint4_linear_10_5" x1="15452" y1="2473.23" x2="15452" y2="1139.77" gradientUnits="userSpaceOnUse">
<stop stop-color="#A6A5A5"/>
<stop offset="1" stop-color="#D1D3D4"/>
</linearGradient>
<linearGradient id="paint5_linear_10_5" x1="26.5054" y1="31.4283" x2="31.3754" y2="29.9348" gradientUnits="userSpaceOnUse">
<stop stop-color="white"/>
<stop offset="1" stop-color="#A6A5A5"/>
</linearGradient>
<linearGradient id="paint6_linear_10_5" x1="-17140.9" y1="129229" x2="-16008.8" y2="127926" gradientUnits="userSpaceOnUse">
<stop stop-color="white"/>
<stop offset="1" stop-color="#A6A5A5"/>
</linearGradient>
<linearGradient id="paint7_linear_10_5" x1="-10790.9" y1="14534.4" x2="-10532.7" y2="14457.5" gradientUnits="userSpaceOnUse">
<stop stop-color="white"/>
<stop offset="1" stop-color="#A6A5A5"/>
</linearGradient>
</defs>
</svg>
